<?xml version="1.0" standalone="no"?>
<!DOCTYPE svg PUBLIC "-//W3C//DTD SVG 20010904//EN"
 "http://www.w3.org/TR/2001/REC-SVG-20010904/DTD/svg10.dtd">
<svg version="1.0" xmlns="http://www.w3.org/2000/svg"
 width="762.000000pt" height="762.000000pt" viewBox="0 0 762.000000 762.000000"
 preserveAspectRatio="xMidYMid meet">
<metadata>
Created by potrace 1.11, written by Peter Selinger 2001-2013
</metadata>
<g transform="translate(0.000000,762.000000) scale(0.100000,-0.100000)"
fill="#000000" stroke="none">
<path d="M3725 7126 c-230 -49 -418 -219 -488 -441 -23 -72 -29 -110 -28 -195
1 -105 12 -167 41 -235 8 -16 14 -32 15 -35 3 -14 41 -79 63 -110 37 -50 121
-132 173 -167 123 -84 331 -128 470 -99 13 3 36 8 52 11 134 27 287 137 371
265 86 132 111 219 109 380 0 112 -6 143 -40 230 -70 175 -201 304 -378 369
-100 37 -257 49 -360 27z m219 -281 c87 -18 199 -105 240 -185 107 -208 2
-457 -222 -527 -65 -20 -117 -22 -187 -6 -133 31 -213 106 -274 257 -18 43
-15 149 5 214 55 181 245 288 438 247z"/>
<path d="M4620 7122 c-48 -26 -89 -88 -90 -134 0 -49 14 -84 53 -128 44 -51
58 -69 87 -115 33 -52 80 -150 80 -167 0 -8 4 -18 9 -24 22 -24 45 -171 44
-279 -1 -106 -3 -117 -25 -210 -37 -152 -116 -293 -228 -405 -59 -60 -158
-137 -170 -133 -3 1 -12 -4 -20 -12 -31 -27 -161 -78 -230 -91 -14 -2 -47 -8
-75 -13 -81 -15 -250 -6 -345 19 -88 22 -208 77 -282 128 -56 39 -178 155
-178 170 0 7 -4 12 -8 12 -15 0 -133 206 -138 240 0 3 -6 24 -13 48 -12 43
-15 61 -26 157 -14 115 -39 187 -79 224 -35 33 -117 40 -166 14 -58 -30 -73
-70 -73 -187 0 -55 3 -119 6 -141 4 -22 9 -56 13 -75 11 -64 62 -205 105 -285
23 -44 45 -82 48 -85 3 -3 24 -32 46 -65 37 -55 152 -178 220 -235 56 -47 171
-119 246 -154 163 -75 311 -108 494 -109 126 -1 193 8 345 47 45 12 163 62
220 93 161 88 309 221 417 375 41 58 133 236 133 258 0 9 4 20 9 25 11 12 50
164 58 225 3 25 6 82 7 127 1 46 5 83 9 83 5 0 5 5 1 12 -4 6 -8 26 -10 42 -9
137 -51 289 -120 434 -126 262 -261 376 -374 314z"/>
<path d="M1948 5235 c-1 -2 -32 -6 -68 -10 -134 -14 -345 -66 -495 -122 -96
-35 -300 -134 -355 -172 -25 -17 -48 -31 -52 -31 -4 0 -29 -16 -55 -36 -27
-20 -61 -45 -78 -57 -129 -95 -267 -240 -283 -297 -16 -54 -9 -111 17 -152 27
-42 43 -58 171 -168 104 -89 163 -143 256 -234 162 -160 198 -185 278 -190 53
-4 135 39 211 110 176 165 316 225 535 228 92 1 157 -11 185 -34 61 -50 60
-207 -2 -280 -35 -43 -65 -56 -175 -78 -103 -21 -153 -47 -186 -98 -24 -37
-39 -110 -37 -174 3 -63 16 -230 20 -260 8 -54 16 -128 20 -190 7 -108 15
-194 20 -220 3 -14 7 -34 9 -45 7 -32 24 -68 44 -91 33 -39 85 -48 297 -51
202 -3 224 -4 260 -17 125 -44 174 -126 173 -287 -1 -52 -5 -112 -11 -134 -5
-22 -10 -44 -11 -50 -1 -5 -10 -27 -19 -49 -9 -21 -17 -41 -17 -45 0 -15 -79
-125 -120 -167 -83 -85 -200 -152 -324 -184 -74 -19 -177 -34 -206 -31 -8 1
-26 1 -40 0 -14 0 -29 -1 -35 -1 -18 -1 -124 11 -147 17 -13 2 -36 7 -51 9
-51 9 -130 37 -228 82 -151 70 -215 64 -271 -26 -59 -95 -8 -185 156 -279 77
-44 210 -95 276 -106 19 -3 44 -9 55 -12 39 -12 264 -17 335 -8 154 21 291 60
418 122 88 41 206 116 243 152 9 9 35 33 58 55 23 21 54 55 69 75 15 20 34 44
43 54 51 56 122 232 144 357 13 72 14 297 2 317 -4 5 -9 25 -12 43 -22 126
-135 293 -232 347 -18 10 -33 21 -33 25 0 5 -8 8 -18 8 -10 0 -22 4 -27 9 -30
27 -126 43 -280 46 -163 3 -147 0 -183 34 -38 37 -60 131 -67 288 -5 127 24
190 97 212 113 34 136 48 223 137 70 71 110 144 129 234 35 174 -15 360 -128
474 -105 104 -220 149 -386 150 -97 0 -236 -22 -279 -44 -9 -5 -38 -16 -66
-25 -69 -24 -205 -90 -295 -143 -123 -73 -185 -67 -276 28 -27 29 -56 60 -65
69 -133 135 -134 151 -8 253 198 160 482 289 714 323 22 4 51 8 65 10 155 23
404 24 510 1 8 -1 33 -6 55 -11 22 -4 45 -10 50 -14 6 -3 17 -6 25 -8 26 -4
163 -68 196 -92 12 -9 32 -23 44 -31 12 -8 32 -23 43 -34 12 -10 31 -26 42
-35 17 -13 118 -131 143 -166 47 -67 109 -186 127 -245 31 -103 36 -135 41
-257 6 -166 -31 -331 -111 -495 -84 -171 -76 -246 28 -297 78 -38 144 -21 192
50 16 24 32 46 35 49 3 3 23 41 44 84 104 214 140 360 140 571 0 125 -9 209
-34 295 -7 25 -14 52 -15 60 -2 8 -4 15 -5 15 -1 0 -3 8 -5 18 -7 36 -90 209
-129 267 -134 202 -302 354 -504 455 -67 33 -187 82 -222 90 -8 2 -31 9 -50
14 -19 6 -60 16 -90 21 -30 6 -66 13 -80 16 -26 6 -366 15 -372 9z"/>
<path d="M5577 4954 c-1 -1 -36 -4 -77 -7 -131 -10 -172 -17 -297 -47 -109
-27 -253 -76 -293 -100 -8 -5 -37 -20 -65 -33 -159 -75 -347 -219 -475 -363
-120 -134 -193 -246 -292 -446 -50 -102 -45 -163 17 -217 61 -52 127 -64 181
-31 35 22 53 49 121 180 25 47 49 87 54 88 5 2 9 9 9 15 0 10 73 115 116 166
77 93 231 226 326 282 111 67 277 137 358 152 14 3 36 8 50 11 87 20 150 26
290 25 121 0 144 -1 225 -14 55 -8 211 -43 235 -52 8 -4 17 -7 20 -8 52 -13
168 -59 250 -100 193 -95 354 -218 509 -391 97 -107 219 -305 281 -454 17 -41
35 -84 40 -95 19 -44 59 -177 74 -247 47 -212 59 -322 60 -553 1 -296 -35
-513 -126 -760 -32 -87 -147 -325 -157 -325 -4 0 -17 -20 -31 -45 -14 -25 -28
-45 -32 -45 -5 0 -8 -7 -8 -15 0 -8 -3 -15 -7 -15 -5 0 -19 -17 -33 -38 -66
-99 -435 -432 -478 -432 -6 0 -12 -4 -14 -9 -5 -16 -199 -112 -288 -143 -126
-44 -260 -66 -392 -63 -62 1 -126 5 -143 9 -16 3 -40 8 -53 11 -13 2 -32 7
-42 10 -10 3 -27 8 -37 10 -10 2 -54 17 -98 33 -298 111 -514 322 -624 609
-11 29 -23 63 -26 75 -34 154 -45 215 -50 292 -11 153 -24 203 -62 236 -32 28
-42 31 -100 31 -60 0 -109 -24 -129 -63 -33 -62 -23 -351 17 -513 35 -141 95
-287 155 -383 19 -29 34 -56 34 -61 0 -5 3 -11 8 -13 4 -1 27 -30 52 -63 146
-193 392 -372 628 -455 64 -23 200 -59 247 -66 171 -25 282 -24 467 0 79 11
281 69 306 89 6 5 12 7 12 4 0 -22 356 177 455 254 296 230 537 536 673 856
26 60 45 106 47 113 1 3 4 12 8 20 24 63 79 259 93 330 2 14 6 34 9 46 5 23
14 80 20 123 2 14 4 26 5 26 6 0 14 176 14 330 1 165 -4 253 -18 355 -8 53
-16 106 -21 130 -3 14 -7 34 -9 45 -38 184 -113 404 -198 578 -21 43 -38 82
-38 87 0 6 -4 10 -9 10 -5 0 -11 8 -14 18 -8 23 -40 76 -49 80 -5 2 -8 8 -8
13 0 11 -42 72 -52 77 -5 2 -8 8 -8 14 0 8 -58 86 -80 108 -3 3 -22 26 -42 51
-84 105 -260 262 -381 341 -23 15 -53 35 -67 45 -28 20 -45 30 -150 83 -146
74 -375 155 -465 165 -11 1 -36 5 -55 8 -19 4 -48 9 -65 13 -50 9 -301 24
-308 18z"/>
<path d="M5648 4104 c-2 -1 -21 -5 -43 -8 -116 -17 -219 -52 -337 -113 -118
-61 -195 -123 -314 -255 -37 -41 -130 -178 -165 -243 -106 -197 -250 -381
-373 -480 -21 -16 -43 -35 -50 -40 -56 -51 -211 -126 -318 -155 -108 -29 -123
-31 -248 -36 -213 -8 -234 -11 -269 -32 -54 -33 -74 -76 -75 -162 -1 -41 3
-104 8 -140 15 -102 11 -324 -7 -426 -59 -330 -250 -639 -532 -860 -83 -65
-206 -143 -290 -183 -38 -18 -79 -38 -89 -43 -59 -31 -297 -102 -376 -113
-119 -16 -168 -20 -280 -20 -129 1 -237 10 -277 26 -13 5 -23 7 -23 4 0 -9
-189 48 -288 87 -223 87 -385 192 -548 353 -96 95 -127 132 -179 214 -5 8 -15
21 -22 28 -19 21 -120 233 -142 298 -72 216 -96 422 -78 675 7 98 43 304 58
331 5 11 8 19 5 19 -2 0 4 30 15 68 11 37 22 85 25 107 3 22 7 45 9 52 2 7 0
15 -6 18 -5 4 -7 10 -4 15 9 15 -44 67 -85 84 -55 22 -89 22 -130 3 -34 -16
-66 -57 -82 -102 -24 -70 -71 -223 -73 -240 -2 -11 -4 -20 -5 -20 -1 0 -3 -8
-5 -19 -2 -10 -8 -39 -14 -65 -10 -44 -13 -65 -29 -176 -9 -69 -9 -387 1 -460
9 -70 15 -104 20 -125 4 -14 15 -67 21 -100 2 -8 5 -22 8 -30 3 -8 11 -35 18
-60 30 -111 180 -440 202 -440 4 0 8 -5 8 -11 0 -9 55 -94 70 -109 3 -3 21
-25 39 -50 44 -58 254 -265 292 -287 16 -10 29 -21 29 -25 0 -4 6 -8 14 -8 8
0 16 -4 18 -9 5 -14 137 -96 233 -144 79 -40 201 -96 208 -96 2 0 33 -10 67
-22 40 -14 222 -60 260 -65 19 -3 46 -7 60 -9 103 -20 494 -28 590 -13 89 15
116 20 175 34 33 8 69 17 79 19 49 11 159 51 246 88 313 135 563 327 783 599
20 25 37 51 37 56 0 5 7 15 15 22 8 7 29 38 47 69 17 31 34 58 38 61 10 9 97
204 118 265 23 69 48 163 57 220 4 22 9 51 11 65 9 51 13 118 15 245 3 171 21
206 113 221 21 3 48 7 59 10 12 2 39 6 60 9 22 4 49 10 61 14 11 5 24 9 29 10
4 0 8 1 10 2 1 0 12 2 24 5 39 7 176 65 253 106 153 82 283 189 403 331 23 27
47 55 52 61 6 6 26 34 45 61 19 28 38 52 41 55 10 7 48 72 55 93 4 9 10 17 13
17 4 0 18 23 30 50 12 28 27 50 32 50 5 0 9 7 9 16 0 24 95 157 164 227 164
169 362 236 596 203 62 -9 122 -26 138 -38 6 -6 12 -8 12 -4 0 7 77 -34 115
-60 46 -33 118 -112 162 -177 63 -94 156 -315 177 -421 23 -110 28 -161 30
-292 2 -83 -1 -180 -5 -215 -5 -35 -11 -86 -14 -114 -4 -27 -9 -53 -11 -57 -3
-4 -7 -18 -9 -29 -5 -23 -22 -83 -32 -109 -3 -8 -7 -20 -8 -25 -3 -13 -66
-142 -85 -174 -64 -107 -191 -241 -310 -328 -117 -84 -144 -146 -102 -229 50
-98 138 -116 253 -51 72 41 163 112 238 187 74 73 171 198 171 219 0 6 4 11 8
11 14 0 104 190 140 295 24 69 57 200 67 265 4 25 9 54 11 64 30 163 9 552
-36 671 -5 14 -8 25 -5 25 2 0 -3 19 -11 43 -9 23 -17 51 -20 62 -5 29 -47
131 -88 215 -103 211 -268 389 -460 494 -61 34 -203 82 -271 92 -48 7 -242 13
-247 8z"/>
</g>
</svg>
