<svg id="Layer_1" data-name="Layer 1" xmlns="http://www.w3.org/2000/svg" viewBox="0 0 830.39 830.64"><path d="M909.62,491.08c-17.6-15.8-34.1-33.3-45-54.2-15.4-29.5-37.3-48.3-70.3-53.2-7.4-1.1-8.5-2.4-3.7-8.8,17.8-23.4,22.5-50.2,15.1-78-7.1-26.4-10.8-53-9.6-80.1.5-10.1-3.3-13.2-13-12.7-23.8,1.3-47.5-.6-70.5-7.3-33.9-9.9-64.9-5.9-94.7,18.1-2.8-33.8-18.1-58.3-45-74.1-24.2-14.4-46.2-31-65.2-51.7-4.9-5.4-9.5-6.3-14.6-.6-20.2,22.5-44.8,39.2-70.4,55.2-21.9,13.7-35.7,34.4-39.2,60.9-.4,3-1.5,5.9-2.5,9.9-24.9-21.5-52.9-27.7-82.7-20.3-27.7,6.9-55.4,11.2-83.8,9.9-8.7-.4-10.3,4.2-10.1,11.7.5,25-1,49.9-8.3,74.1a113,113,0,0,0-4.5,27c-1.2,24.5,7.6,45.7,22,65.8-33.3,2.1-57.5,18.1-73.3,44.9-13.9,23.5-29.7,45.1-49.7,63.5-7.1,6.6-7.8,11.1-.3,18.1,19.5,18.2,36.2,38.7,49.1,62.5,11.8,21.7,30.7,35.7,54.3,43.3,6.4,2.1,13.7,1,20.2,5-21.3,24.2-27,52.2-19.8,82,6.7,27.3,11.2,54.6,10.1,82.6-.4,9.6,3.5,12.2,12.5,11.9,21.2-.9,42.7-.8,63.1,5.5,36.4,11.2,70.5,10.7,101.9-16.3,3.5,34.3,19.3,59.8,48,75.9a256.79,256.79,0,0,1,61.4,48.4c6.9,7.3,11.7,6.8,18.4-.3a248.66,248.66,0,0,1,61.5-48.4,89.93,89.93,0,0,0,42.8-51.7c2.4-7.2,3.2-14.9,5-23.4,25.7,20.9,53.8,28.1,84.2,20,26.9-7.2,53.8-10.9,81.4-9.7,9.4.4,12.4-3.4,12-12.5-.9-21.2-.9-42.7,5.4-63.1,11.2-36.4,10.5-70.5-15.5-101.2,42.5-11.4,60.2-22.3,74.5-48.1a245.75,245.75,0,0,1,49.2-62.4C917.42,502.18,917,497.68,909.62,491.08Zm-17.9,16.4c-17.2,17.1-31.1,36.6-43.3,57.6-15.4,26.4-39.1,40.1-71.5,38.8-5.6,2.1-15.5-6-19,3.5-3.3,9.1,7.8,11.5,12.8,16.2,22.2,20.9,29,46.7,22,75.1-6.1,24.8-10.9,49.5-10.7,75,.1,6.8-2.4,8.5-8.6,8.5-25.5,0-50.1,4.7-75,10.8-29.8,7.3-57-.7-77.4-25.4-.8-1-1.6-2-2.4-2.9-3.4-3.2-5.2-9.5-11.7-7.2-6.8,2.5-3.9,8.3-3.4,12.9,2.3,23.5-2.7,44.5-18.9,62.4-6,6.6-12.6,12.4-20.3,16.3-21.7,11.2-40.4,26.3-57.7,43.2-4.8,4.7-7.6,5.8-12.9.3-17.5-18-37.8-32.1-59.5-44.8-28.5-16.7-40.5-42.9-37.6-75.9.4-5,3.8-11.6-3.2-14.4-6.7-2.7-9.3,3.9-12.6,7.9-23.4,28.4-53,35.4-87.5,25.2a214.86,214.86,0,0,0-62.8-8.5c-8.8,0-13.4-1.1-13-12,.9-23-3.2-45.4-9.3-67.7-9.1-33.3-.2-61.6,26.8-83.7,3.8-3.1,9.2-5.6,7.2-11.8-2.3-6.9-8.3-3.9-12.9-3.5-37.4,3.3-64.2-12.2-81.7-45.1-10.4-19.7-24.6-36.5-40.2-52.1-5.2-5.2-4.9-7.9.1-12.8a247.66,247.66,0,0,0,42.2-55.4c17.5-30.8,44.3-45.1,80-41.7,4.4.4,9.6,2.6,12.2-2.9,2.8-6.1-2.4-8.8-6.3-11.9-27.6-22.2-36.7-50.5-27.3-84.5,6.2-22.2,9.9-44.7,9.3-67.7-.2-8.1,1.4-11.9,10.8-11.6,24.7.8,48.6-4.6,72.5-10.4,31.8-7.7,59.1,1.2,80,27.4,3.2,4,5.8,10.5,12.6,7.5,6.1-2.6,3.5-8.5,3.1-13.3-3-37,11.5-63.7,44.2-80.9,19.7-10.4,36.7-24.4,52.2-40.1,5.5-5.6,8.6-5.6,13.9-.2,17.1,17.1,36.7,30.8,57.5,43.3,28.4,17.1,42.7,43,39,77.3-.5,4.9-3.6,11.4,3.7,14,6.4,2.3,8.7-3.7,11.6-7.3,22.7-28.2,51.8-35.8,85.9-26.3,22.2,6.2,44.7,9.8,67.7,9.1,7.9-.2,9.8,2.3,9.7,9.8-.3,24.2,4,47.8,10.1,71.3,8.5,32.8-.7,60.8-27.4,82.4-3.8,3.1-9.4,5.1-7.1,11.5,2.5,6.7,8.5,3.9,13,3.5,37.5-3.5,63.9,12.3,81.5,45a202.72,202.72,0,0,0,39.5,51.2C897.92,498.78,897.32,501.88,891.72,507.48Z" transform="translate(-84.99 -84.6)"/><path d="M500.92,254.38c-134.2-.6-246.2,108.9-246.9,241.2-.7,138.6,107.9,250.2,243.8,250.6,136.4.4,246.8-108.7,247.7-244.4S636.62,255.08,500.92,254.38Zm-2.3,477.8c-126.1.3-231.7-105.5-231.2-231.6.5-128.2,103.9-232,231.6-232.3,127-.3,232.4,103.1,232.5,228.4C731.72,628.58,629.52,731.88,498.62,732.18Z" transform="translate(-84.99 -84.6)"/><path d="M420.76,628c-59,.3-97.2-52.5-78.9-109,1.5-4.7,2.8-10.8,9.5-9,7.5,2.1,5.1,7.9,3.6,13.3-12.3,43.6,8.8,80,51,89.6,40.1,9.1,90-23.3,82.2-72.3-1.3-8.4.8-13,10-12.6,22.3,1.1,36.5-10.7,46.8-29.1,5.5-9.8,12-18.9,22.6-24.2,20.3-10.2,42.1-4.6,54.8,14.2,15.4,22.8,15.5,57.4.4,80.3a51.46,51.46,0,0,1-15.9,15.6c-4,2.6-8.7,4.3-12-.8-2.9-4.5-.2-7.7,3.6-10.3,18.6-13,22.8-31.7,21-52.8a40,40,0,0,0-1.7-8.5c-4.1-13.2-9.9-25.6-25-28.2-15.9-2.6-26.9,5.6-34.4,19.3-11,20.4-26.4,35.2-50.5,38.2-5.3.6-5.3,4.2-5.2,8.2C504.26,595.83,460.36,629.13,420.76,628Z" transform="translate(-84.99 -84.6)"/><path d="M429.06,420.23c45.4,0,73.2,44.5,51.6,82.4-2.3,4.1-4.9,8.6-10.5,5.9-5.4-2.6-4.5-6.9-2.1-11.6,8.3-16.6,8.2-33-3.9-47.9-12.9-16-30.8-16.7-49-13.8a65.82,65.82,0,0,0-29.5,12.9c-2.7,2.1-8.47,5.36-4.6,8.8,4.4,4.1,9.83,14,16.7,8.5,6.9-4,13.9-7.5,21.6-9.3,12.6-3,24.3,1.7,28.6,11.6,4.51,10.17,2.06,21.51-7.36,28.22a13,13,0,0,1-6.1,2.69c-6.79,1.43-4.36,12.24-3.65,17.51.68,5.45,3.91,6.48,8.41,6.08,27.8-2.5,33.5,26.8,24.4,45.3-11.8,24.2-50,33.2-71.7,17.2-3.4-2.5-5.6-5.4-3.6-9.4,2.4-5,6.6-4.4,10.6-2.4a46.16,46.16,0,0,0,27.8,5c15.9-2.2,26.4-13.6,26.6-28,.2-11.3-5.9-14.1-15.9-13.8-18,.5-18,.3-19.3-17.7-.3-4.1-.84-8-1.2-12.4-.85-10.37-2.4-18,11-19.4,5.6-.6,8.4-5.1,7.9-10.9-.7-6.7-6-5.8-10.4-5.9-9.4-.3-17.1,4-23.3,10.2-6.6,6.6-11.7,5.8-17.8-.5a210.54,210.54,0,0,0-18.4-16.9c-6.9-5.8-5.8-10.6.1-16.5C381.66,430.53,406.16,420.23,429.06,420.23Z" transform="translate(-84.99 -84.6)"/><path d="M655.66,530.43c-.2-42.3-22.9-73.9-59.2-82-28.4-6.4-53.5,5-67.3,30.5-2.6,4.8-4.5,11.5-11.4,8-7.6-3.9-2.9-10-.4-15,21.4-41.6,76.5-52.2,116-21.6,50.8,39.3,51.4,137.2-17.9,170.2-41.5,19.8-88.3-8.6-88.7-53.5,0-4.9-1.2-11.1,5.9-11.6s7.2,5.3,7.5,10.4c1.2,20,10.1,35.3,28.7,43.2,18.4,7.8,36.1,3.9,51.9-7.6C644.76,584,655.56,559.73,655.66,530.43Z" transform="translate(-84.99 -84.6)"/><path d="M560.42,371.06a50.37,50.37,0,0,1,0,8,53.14,53.14,0,0,1-19.24,36.44,51.48,51.48,0,0,1-60.77,3,54,54,0,0,1-22-30.05,51.9,51.9,0,0,1-1.4-11.1c-.1-4.2-.1-8.8,5.6-9.5,9.22-1.14,7.65,11.65,9.24,17.27a38.23,38.23,0,1,0,71.72-25.83A40.05,40.05,0,0,0,536.83,349a6.77,6.77,0,0,1,.63-10.06c7.65-6.56,15.44,7.9,18,13.25A53.44,53.44,0,0,1,560.42,371.06Z" transform="translate(-84.99 -84.6)"/><path d="M513.6,338.44c-15.41-4.33-31,4.18-35.33,19.27a28.62,28.62,0,0,0,19.37,35.35l.67.19a28,28,0,0,0,34.46-19.51C537.2,358.36,528.71,342.7,513.6,338.44ZM505.54,382a16.17,16.17,0,1,1,16.17-16.17A16.17,16.17,0,0,1,505.54,382Z" transform="translate(-84.99 -84.6)"/></svg>