<svg id="Layer_1" data-name="Layer 1" xmlns="http://www.w3.org/2000/svg" viewBox="0 0 926.83 926.82"><defs><style>.cls-1,.cls-2{fill:#fff;}.cls-2{font-size:112px;font-family:GlacialIndifference-Bold, Glacial Indifference;font-weight:700;}</style></defs><path d="M500.69,940.27A440.39,440.39,0,0,1,329.32,94.32,440.39,440.39,0,0,1,672.06,905.68,437.59,437.59,0,0,1,500.69,940.27Z" transform="translate(-38.59 -36.87)"/><path d="M500.69,65.23A434.89,434.89,0,0,1,669.92,900.61,434.89,434.89,0,0,1,331.46,99.39,432,432,0,0,1,500.69,65.23m0-11C254.5,54.23,54.92,253.81,54.92,500S254.5,945.77,500.69,945.77,946.46,746.19,946.46,500,746.88,54.23,500.69,54.23Z" transform="translate(-38.59 -36.87)"/><path class="cls-1" d="M500.89,820.4a319.5,319.5,0,1,1,225.93-93.58A317.38,317.38,0,0,1,500.89,820.4Z" transform="translate(-38.59 -36.87)"/><path d="M500.89,186.89a313,313,0,1,1-122.22,24.67,312,312,0,0,1,122.22-24.67m0-11c-179.49,0-325,145.51-325,325s145.51,325,325,325,325-145.51,325-325-145.51-325-325-325Z" transform="translate(-38.59 -36.87)"/><path d="M780.75,494.82C768.71,484,757.42,472,750,457.75c-10.54-20.18-25.52-33-48.09-36.39-5.06-.76-5.81-1.65-2.53-6,12.18-16,15.39-34.34,10.33-53.36-4.86-18.05-7.39-36.25-6.57-54.78.35-6.91-2.25-9-8.89-8.69-16.28.89-32.49-.41-48.22-5-23.19-6.78-44.39-4-64.78,12.38-1.91-23.12-12.38-39.88-30.78-50.69-16.55-9.85-31.6-21.2-44.59-35.36-3.36-3.7-6.5-4.31-10-.41-13.82,15.39-30.64,26.81-48.15,37.75-15,9.38-24.42,23.53-26.82,41.66a67.12,67.12,0,0,1-1.71,6.77c-17-14.7-36.18-18.94-56.56-13.88-18.95,4.72-37.9,7.66-57.32,6.77-6-.27-7.05,2.87-6.91,8,.34,17.1-.69,34.13-5.68,50.69a77.48,77.48,0,0,0-3.08,18.46c-.82,16.76,5.2,31.26,15.05,45-22.78,1.44-39.33,12.38-50.14,30.71-9.51,16.08-20.31,30.85-34,43.44-4.86,4.51-5.34,7.59-.21,12.38A167.75,167.75,0,0,1,253.93,550c8.07,14.84,21,24.42,37.14,29.62,4.38,1.43,9.37.68,13.82,3.42-14.57,16.55-18.47,35.7-13.55,56.09,4.58,18.67,7.66,37.34,6.91,56.49-.27,6.57,2.39,8.35,8.55,8.14,14.5-.61,29.21-.54,43.16,3.77,24.9,7.66,48.22,7.31,69.7-11.15,2.4,23.46,13.2,40.9,32.83,51.91a175.74,175.74,0,0,1,42,33.11c4.72,5,8,4.65,12.59-.21A169.91,169.91,0,0,1,549.14,748a61.53,61.53,0,0,0,29.28-35.37c1.64-4.92,2.19-10.19,3.42-16,17.58,14.29,36.8,19.22,57.59,13.68,18.4-4.93,36.8-7.46,55.68-6.64,6.43.28,8.48-2.32,8.21-8.55-.62-14.5-.62-29.2,3.69-43.16,7.66-24.89,7.18-48.22-10.6-69.22,29.07-7.8,41.18-15.25,51-32.9A168,168,0,0,1,781,507.2C786.08,502.41,785.81,499.33,780.75,494.82ZM768.5,506c-11.76,11.69-21.27,25-29.61,39.4-10.54,18-26.75,27.42-48.91,26.53-3.83,1.44-10.6-4.1-13,2.4-2.25,6.22,5.34,7.86,8.76,11.08,15.18,14.3,19.84,31.94,15,51.37-4.17,17-7.46,33.86-7.32,51.3.07,4.65-1.64,5.81-5.88,5.81-17.45,0-34.27,3.22-51.3,7.39-20.39,5-39-.48-52.95-17.37-.54-.69-1.09-1.37-1.64-2-2.32-2.19-3.55-6.5-8-4.92-4.65,1.71-2.67,5.68-2.33,8.82,1.58,16.08-1.84,30.44-12.92,42.68a49,49,0,0,1-13.89,11.15c-14.84,7.66-27.63,18-39.47,29.55-3.28,3.22-5.19,4-8.82.21-12-12.31-25.86-22-40.7-30.65-19.49-11.42-27.7-29.34-25.72-51.91.28-3.42,2.6-7.94-2.19-9.85-4.58-1.85-6.36,2.67-8.61,5.4-16,19.43-36.26,24.22-59.85,17.24a147.06,147.06,0,0,0-43-5.82c-6,0-9.17-.75-8.89-8.2.61-15.74-2.19-31.06-6.36-46.31-6.23-22.78-.14-42.14,18.33-57.25,2.6-2.12,6.29-3.83,4.92-8.07-1.57-4.72-5.67-2.67-8.82-2.4-25.58,2.26-43.91-8.34-55.88-30.85-7.12-13.47-16.83-25-27.5-35.63-3.56-3.56-3.35-5.41.07-8.76A169.7,169.7,0,0,0,261,458.5c12-21.07,30.3-30.85,54.72-28.53,3,.28,6.57,1.78,8.35-2,1.91-4.17-1.64-6-4.31-8.14-18.88-15.18-25.1-34.54-18.68-57.8,4.25-15.18,6.78-30.57,6.37-46.3-.14-5.54.95-8.14,7.38-7.94,16.9.55,33.25-3.15,49.59-7.11,21.76-5.27,40.43.82,54.72,18.74,2.19,2.74,4,7.18,8.62,5.13,4.18-1.78,2.4-5.81,2.12-9.1-2.05-25.31,7.87-43.57,30.24-55.33,13.47-7.12,25.1-16.69,35.7-27.43,3.76-3.83,5.88-3.83,9.51-.14,11.7,11.7,25.1,21.07,39.33,29.62,19.43,11.69,29.21,29.41,26.68,52.87-.35,3.35-2.47,7.8,2.53,9.58,4.37,1.57,5.95-2.53,7.93-5,15.53-19.28,35.43-24.48,58.76-18,15.18,4.24,30.57,6.7,46.3,6.22,5.41-.14,6.71,1.57,6.64,6.7-.21,16.56,2.74,32.7,6.91,48.77,5.81,22.44-.48,41.59-18.74,56.36-2.6,2.13-6.43,3.49-4.86,7.87,1.71,4.58,5.81,2.67,8.89,2.39,25.65-2.39,43.71,8.42,55.75,30.79a138.71,138.71,0,0,0,27,35C772.75,500.09,772.34,502.21,768.5,506Z" transform="translate(-38.59 -36.87)"/><path d="M501.19,332.91c-91.79-.41-168.4,74.49-168.88,165-.48,94.8,73.81,171.13,166.76,171.41,93.3.27,168.82-74.35,169.43-167.17S594,333.39,501.19,332.91Zm-1.57,326.82c-86.25.21-158.48-72.16-158.14-158.41.34-87.69,71.07-158.69,158.41-158.9,86.87-.2,159,70.52,159,156.23C659.06,588.87,589.16,659.53,499.62,659.73Z" transform="translate(-38.59 -36.87)"/><path d="M446.37,588.49c-40.36.2-66.49-35.91-54-74.56,1-3.21,1.91-7.39,6.5-6.15,5.13,1.43,3.48,5.4,2.46,9.09-8.41,29.83,6,54.72,34.88,61.29,27.43,6.22,61.56-15.94,56.23-49.45-.89-5.75.55-8.9,6.84-8.62,15.25.75,25-7.32,32-19.91,3.76-6.7,8.21-12.92,15.46-16.55,13.88-7,28.79-3.15,37.48,9.71,10.54,15.6,10.6,39.27.28,54.93a35.28,35.28,0,0,1-10.88,10.67c-2.74,1.78-5.95,2.94-8.21-.55-2-3.08-.14-5.26,2.46-7,12.73-8.89,15.6-21.69,14.37-36.12a28,28,0,0,0-1.16-5.81c-2.81-9-6.78-17.51-17.1-19.29-10.88-1.78-18.4,3.83-23.53,13.2-7.53,13.95-18.06,24.08-34.55,26.13-3.62.41-3.62,2.87-3.55,5.61C503.48,566.46,473.45,589.24,446.37,588.49Z" transform="translate(-38.59 -36.87)"/><path d="M452,446.35c31.06,0,50.07,30.44,35.3,56.36-1.58,2.81-3.35,5.89-7.18,4s-3.08-4.72-1.44-7.93c5.68-11.36,5.61-22.58-2.67-32.77-8.82-10.94-21.07-11.42-33.51-9.44a44.93,44.93,0,0,0-20.18,8.83c-1.85,1.43-5.79,3.67-3.15,6,3,2.8,6.73,9.58,11.42,5.81a54.09,54.09,0,0,1,14.78-6.36c8.62-2.05,16.62,1.16,19.56,7.93,3.09,7,1.41,14.72-5,19.31a9,9,0,0,1-4.17,1.84c-4.65,1-3,8.37-2.5,12s2.67,4.43,5.75,4.16c19-1.71,22.91,18.33,16.69,31-8.07,16.55-34.2,22.71-49,11.76-2.33-1.71-3.83-3.69-2.47-6.43,1.65-3.42,4.52-3,7.25-1.64a31.57,31.57,0,0,0,19,3.42c10.88-1.5,18.06-9.3,18.19-19.15.14-7.73-4-9.65-10.87-9.44-12.31.34-12.31.2-13.2-12.11-.21-2.8-.58-5.48-.82-8.48-.59-7.09-1.64-12.31,7.52-13.27,3.83-.41,5.75-3.49,5.4-7.46-.47-4.58-4.1-4-7.11-4-6.43-.21-11.7,2.73-15.94,7-4.51,4.51-8,4-12.17-.35a145.29,145.29,0,0,0-12.59-11.56c-4.72-4-4-7.25.07-11.28C419.62,453.4,436.38,446.35,452,446.35Z" transform="translate(-38.59 -36.87)"/><path d="M607,521.73c-.14-28.93-15.66-50.55-40.49-56.09-19.43-4.38-36.6,3.42-46,20.86-1.78,3.29-3.08,7.87-7.8,5.48-5.19-2.67-2-6.84-.27-10.26,14.64-28.46,52.33-35.71,79.35-14.78,34.74,26.88,35.15,93.85-12.25,116.42-28.38,13.54-60.4-5.88-60.67-36.6,0-3.35-.82-7.59,4-7.93s4.92,3.63,5.13,7.11c.82,13.68,6.9,24.15,19.63,29.55s24.69,2.67,35.5-5.2C599.58,558.39,607,541.77,607,521.73Z" transform="translate(-38.59 -36.87)"/><path d="M541.89,412.72a34.2,34.2,0,0,1,0,5.45,36.34,36.34,0,0,1-13.15,24.92,35.24,35.24,0,0,1-41.58,2.07,37,37,0,0,1-15.06-20.56,35.92,35.92,0,0,1-.95-7.59c-.07-2.87-.07-6,3.83-6.5,6.31-.77,5.23,8,6.32,11.81a26.15,26.15,0,1,0,49.05-17.66,27,27,0,0,0-4.57-7,4.65,4.65,0,0,1,.43-6.89c5.23-4.48,10.56,5.41,12.29,9.07A36.72,36.72,0,0,1,541.89,412.72Z" transform="translate(-38.59 -36.87)"/><path d="M511.92,396.57A19.46,19.46,0,1,0,501,433.93l.46.13a19.46,19.46,0,0,0,10.46-37.49Zm-5.51,29.76a11.06,11.06,0,1,1,11.06-11.05A11.05,11.05,0,0,1,506.41,426.33Z" transform="translate(-38.59 -36.87)"/><text class="cls-2" transform="matrix(0.1, -0.99, 0.99, 0.1, 121.34, 442.01)"> </text><text class="cls-2" transform="translate(122.55 413.97) rotate(-75.71)">H</text><text class="cls-2" transform="matrix(0.39, -0.92, 0.92, 0.39, 142.11, 343.68)">I</text><text class="cls-2" transform="matrix(0.52, -0.85, 0.85, 0.52, 152.4, 315.22)">N</text><text class="cls-2" transform="matrix(0.69, -0.73, 0.73, 0.69, 190.26, 253.77)">D</text><text class="cls-2" transform="matrix(0.82, -0.57, 0.57, 0.82, 238.34, 202.74)">U</text><text class="cls-2" transform="translate(299.08 162.58) rotate(-26.36)"> </text><text class="cls-2" transform="translate(322.91 148.04) rotate(-16.85)">O</text><text class="cls-2" transform="translate(404.21 124.03) rotate(-3.72)">N</text><text class="cls-2" transform="matrix(1, 0.08, -0.08, 1, 477.11, 120.94)"> </text><text class="cls-2" transform="translate(505.17 120.95) rotate(13.81)">C</text><text class="cls-2" transform="translate(580.23 139.07) rotate(26.26)">A</text><text class="cls-2" transform="translate(648.87 170.93) rotate(40.91)">M</text><text class="cls-2" transform="matrix(0.59, 0.81, -0.81, 0.59, 723.4, 238.49)">P</text><text class="cls-2" transform="matrix(0.42, 0.91, -0.91, 0.42, 758.83, 286.31)">U</text><text class="cls-2" transform="translate(789.13 351.58) rotate(76.95)">S</text><text class="cls-2" transform="translate(803.53 420.52) rotate(85.22)"> </text><text class="cls-2" transform="translate(805.95 449.35) rotate(90.23)">•</text><text class="cls-2" transform="translate(805.73 480.55) rotate(95.18)"> </text><text class="cls-2" transform="translate(804.86 508.63) rotate(103.58)">H</text><text class="cls-2" transform="translate(786.17 579.17) rotate(112.25)">I</text><text class="cls-2" transform="matrix(-0.51, 0.86, -0.86, -0.51, 776.24, 607.73)">N</text><text class="cls-2" transform="matrix(-0.68, 0.73, -0.73, -0.68, 739.15, 669.65)">D</text><text class="cls-2" transform="translate(691.7 721.27) rotate(144.53)">U</text><text class="cls-2" transform="translate(631.46 762.18) rotate(152.93)"> </text><text class="cls-2" transform="matrix(-0.95, 0.3, -0.3, -0.95, 607.82, 777)">O</text><text class="cls-2" transform="translate(526.82 802.03) rotate(175.57)">N</text><text class="cls-2" transform="translate(454.1 806.19) rotate(-175.42)"> </text><text class="cls-2" transform="translate(425.9 806.35) rotate(-166.9)">C</text><text class="cls-2" transform="matrix(-0.9, -0.43, 0.43, -0.9, 350.63, 789.17)">A</text><text class="cls-2" transform="matrix(-0.76, -0.65, 0.65, -0.76, 281.6, 758.16)">M</text><text class="cls-2" transform="matrix(-0.6, -0.8, 0.8, -0.6, 206.21, 691.5)">P</text><text class="cls-2" transform="matrix(-0.43, -0.9, 0.9, -0.43, 170.21, 644.15)">U</text><text class="cls-2" transform="matrix(-0.24, -0.97, 0.97, -0.24, 139.1, 579.23)">S</text><text class="cls-2" transform="translate(123.85 510.5) rotate(-95.48)"> </text><text class="cls-2" transform="translate(121.08 481.7) rotate(-90.47)">•</text><text class="cls-2" transform="matrix(0.08, -1, 1, 0.08, 120.88, 450.61)">	</text></svg>